<svg width="42" height="42" viewBox="0 0 42 42" fill="none" xmlns="http://www.w3.org/2000/svg">
<path fill-rule="evenodd" clip-rule="evenodd" d="M14.1498 21.4952C14.2102 21.4949 14.2699 21.5073 14.3252 21.5316C14.3805 21.5559 14.43 21.5915 14.4706 21.6362C14.5112 21.6809 14.542 21.7336 14.5609 21.7909C14.5798 21.8482 14.5865 21.9089 14.5804 21.9689C14.3467 24.3067 13.7376 26.4845 12.7779 28.4409C11.9526 30.1402 10.8295 31.6779 9.46195 32.9811C16.0939 29.4375 18.7946 21.8705 17.8841 15.7554C17.312 11.9227 15.0295 7.8254 10.3478 7.8254C6.30595 7.8254 3.01461 11.1167 3.01461 15.1586C3.01734 16.4377 3.35402 17.6939 3.99134 18.8029C4.62865 19.9119 5.54451 20.8353 6.64828 21.4816C7.75204 22.128 9.00546 22.4749 10.2845 22.4881C11.5635 22.5013 12.8238 22.1802 13.9406 21.5568C14.0057 21.5176 14.08 21.4964 14.156 21.4952H14.1498ZM6.66892 35.0359C6.57427 35.0372 6.48182 35.0072 6.40589 34.9507C6.32995 34.8942 6.27476 34.8142 6.24885 34.7232C6.22294 34.6321 6.22774 34.5351 6.26253 34.447C6.29732 34.359 6.36015 34.2849 6.44129 34.2361C11.4121 31.1293 13.1163 26.3738 13.6392 22.6703C12.3912 23.2142 11.0275 23.4391 9.67097 23.3248C8.31441 23.2105 7.00761 22.7605 5.86826 22.0154C4.72892 21.2703 3.79283 20.2534 3.14432 19.0565C2.49581 17.8595 2.15525 16.52 2.15332 15.1586C2.15332 10.6369 5.82609 6.96411 10.3478 6.96411C12.5995 6.96411 14.5866 7.84385 16.0815 9.51106C17.4473 11.0368 18.3701 13.1531 18.7392 15.6323C19.8281 22.9348 16.0077 32.2059 6.78581 35.0174C6.7459 35.0295 6.70446 35.0357 6.66277 35.0359H6.66892ZM35.0852 21.4952C35.1456 21.4949 35.2053 21.5073 35.2606 21.5316C35.3159 21.5559 35.3654 21.5915 35.406 21.6362C35.4466 21.6809 35.4774 21.7336 35.4963 21.7909C35.5152 21.8482 35.5219 21.9089 35.5159 21.9689C35.2759 24.3067 34.673 26.4845 33.7133 28.4409C32.8863 30.1407 31.7611 31.6785 30.3912 32.9811C37.0231 29.4375 39.7239 21.8705 38.8133 15.7554C38.2412 11.9227 35.965 7.8254 31.2771 7.8254C27.2352 7.8254 23.9439 11.1167 23.9439 15.1586C23.9448 16.4384 24.2803 17.6957 24.9172 18.8058C25.5541 19.9159 26.4701 20.8401 27.5745 21.4868C28.6789 22.1335 29.9332 22.4802 31.2129 22.4925C32.4926 22.5047 33.7533 22.1822 34.8699 21.5568C34.935 21.5176 35.0093 21.4964 35.0852 21.4952ZM27.592 35.0359C27.4968 35.0386 27.4034 35.0097 27.3264 34.9536C27.2494 34.8976 27.1931 34.8176 27.1664 34.7262C27.1397 34.6348 27.144 34.5371 27.1787 34.4485C27.2135 34.3598 27.2766 34.2851 27.3582 34.2361C32.3352 31.1293 34.0394 26.3738 34.5561 22.6703C33.3084 23.2129 31.9454 23.4368 30.5897 23.3218C29.234 23.2068 27.9282 22.7566 26.7897 22.0116C25.6512 21.2667 24.7158 20.2503 24.0676 19.0541C23.4194 17.8578 23.0788 16.5192 23.0764 15.1586C23.0764 10.6369 26.7553 6.96411 31.2771 6.96411C33.5349 6.96411 35.5159 7.84385 37.0108 9.51106C38.3766 11.0368 39.2994 13.1531 39.6685 15.6323C40.7574 22.9348 36.937 32.2059 27.7151 35.0174C27.6752 35.0295 27.6337 35.0357 27.592 35.0359Z" fill="#868686"/>
</svg>
