<svg width="18" height="16" viewBox="0 0 18 16" fill="none" xmlns="http://www.w3.org/2000/svg">
<path fill-rule="evenodd" clip-rule="evenodd" d="M1.23741 6.95739C6.06923 4.84055 9.29121 3.445 10.9033 2.77074C15.5063 0.84558 16.4627 0.51116 17.0861 0.500118C17.2232 0.497689 17.5298 0.531858 17.7284 0.69389C17.8961 0.830707 17.9422 1.01553 17.9643 1.14524C17.9864 1.27496 18.0139 1.57046 17.992 1.80135C17.7426 4.43675 16.6633 10.8321 16.1142 13.7838C15.8818 15.0328 15.4244 15.4516 14.9815 15.4925C14.0189 15.5816 13.288 14.8529 12.3558 14.2384C10.897 13.2769 10.0729 12.6783 8.65691 11.74C7.02048 10.6556 8.08131 10.0596 9.0139 9.08561C9.25797 8.8307 13.4988 4.95188 13.5809 4.60001C13.5912 4.556 13.6007 4.39196 13.5038 4.30534C13.4069 4.21872 13.2639 4.24834 13.1606 4.2719C13.0143 4.30529 10.6839 5.85417 6.16938 8.91853C5.5079 9.37528 4.90875 9.59782 4.37193 9.58616C3.78013 9.5733 2.64175 9.24969 1.79548 8.97307C0.757494 8.63379 -0.0674757 8.45441 0.00436067 7.8782C0.0417775 7.57808 0.452793 7.27114 1.23741 6.95739Z" fill="white"/>
</svg>
