<svg aria-hidden="true" style="position: absolute; width: 0; height: 0; overflow: hidden;" version="1.1" xmlns="http://www.w3.org/2000/svg" xmlns:xlink="http://www.w3.org/1999/xlink">
<defs>
<symbol id="icon-arrow-up-right" viewBox="0 0 32 32">
<path fill="none" stroke="#fff" style="stroke: var(--color1, #fff)" stroke-linejoin="round" stroke-linecap="round" stroke-miterlimit="4" stroke-width="1.2308" d="M9.333 22.667l13.333-13.333"></path>
<path fill="none" stroke="#fff" style="stroke: var(--color1, #fff)" stroke-linejoin="round" stroke-linecap="round" stroke-miterlimit="4" stroke-width="1.2308" d="M22.667 22.667v-13.333h-13.333"></path>
</symbol>
<symbol id="behance" viewBox="0 0 32 32">
<path fill="#fff" style="fill: var(--color1, #fff)" d="M10.386 7.205c0.721-0.013 1.44 0.061 2.143 0.22 0.592 0.129 1.154 0.37 1.656 0.708 0.464 0.337 0.831 0.79 1.064 1.313 0.268 0.644 0.397 1.337 0.379 2.034 0.030 0.765-0.165 1.523-0.562 2.178-0.418 0.619-0.995 1.113-1.671 1.43 0.917 0.247 1.716 0.814 2.253 1.597 0.515 0.83 0.774 1.794 0.745 2.771 0.017 0.779-0.144 1.551-0.471 2.258-0.302 0.617-0.744 1.154-1.291 1.57-0.563 0.411-1.197 0.715-1.87 0.897-0.698 0.193-1.419 0.29-2.143 0.288h-7.95v-17.265h7.719zM9.927 14.188c0.566 0.023 1.123-0.146 1.581-0.481 0.219-0.195 0.389-0.439 0.497-0.711s0.151-0.567 0.125-0.859c0.015-0.341-0.053-0.681-0.198-0.99-0.123-0.246-0.314-0.452-0.55-0.593-0.239-0.155-0.508-0.259-0.79-0.305-0.305-0.059-0.616-0.086-0.927-0.080h-3.397v4.034h3.659v-0.015zM10.125 21.538c0.342 0.005 0.684-0.032 1.018-0.11 0.305-0.067 0.594-0.192 0.851-0.369 0.252-0.176 0.456-0.413 0.593-0.689 0.158-0.352 0.231-0.736 0.212-1.121 0.034-0.351-0.012-0.705-0.136-1.035s-0.321-0.628-0.578-0.87c-0.544-0.401-1.21-0.599-1.884-0.561h-3.933v4.754h3.857z"></path>
<path fill="#fff" style="fill: var(--color1, #fff)" d="M21.521 21.474c0.283 0.262 0.616 0.464 0.979 0.593s0.749 0.183 1.133 0.159c0.61 0.015 1.208-0.17 1.702-0.528 0.402-0.261 0.706-0.648 0.866-1.1h2.872c-0.306 1.287-1.053 2.426-2.112 3.219-1.016 0.674-2.216 1.015-3.434 0.977-0.87 0.011-1.733-0.152-2.538-0.481-0.728-0.304-1.382-0.763-1.914-1.345-0.531-0.61-0.938-1.317-1.2-2.082-0.294-0.855-0.438-1.755-0.426-2.659-0.005-0.889 0.143-1.772 0.44-2.61 0.398-1.179 1.16-2.202 2.176-2.921s2.233-1.098 3.477-1.083c0.919-0.019 1.827 0.196 2.64 0.625 0.735 0.403 1.368 0.967 1.853 1.65 0.496 0.717 0.852 1.521 1.048 2.371 0.215 0.912 0.292 1.851 0.228 2.786h-8.555c-0.069 0.878 0.205 1.749 0.765 2.43zM25.274 14.908c-0.239-0.239-0.527-0.425-0.844-0.544s-0.656-0.168-0.994-0.145c-0.448-0.017-0.893 0.082-1.291 0.288-0.316 0.174-0.595 0.408-0.821 0.689-0.2 0.263-0.349 0.562-0.44 0.88-0.081 0.265-0.132 0.539-0.152 0.816h5.299c-0.046-0.722-0.309-1.413-0.755-1.983l-0.002-0.001z"></path>
<path fill="#fff" style="fill: var(--color1, #fff)" d="M26.689 8.357h-6.64v1.697h6.64v-1.697z"></path>
</symbol>
<symbol id="close" viewBox="0 0 32 32">
<path fill="none" stroke="#fff" style="stroke: var(--color1, #fff)" stroke-linejoin="round" stroke-linecap="round" stroke-miterlimit="4" stroke-width="2.6667" d="M24 8l-16 16M8 8l16 16"></path>
</symbol>
<symbol id="instagram" viewBox="0 0 32 32">
<path fill="#fff" style="fill: var(--color1, #fff)" d="M16 4c-3.259 0-3.667 0.014-4.947 0.072-1.278 0.058-2.15 0.262-2.914 0.558-0.8 0.301-1.526 0.773-2.126 1.384-0.61 0.599-1.083 1.324-1.384 2.125-0.295 0.763-0.499 1.637-0.558 2.914-0.058 1.279-0.072 1.686-0.072 4.946s0.014 3.667 0.072 4.947c0.058 1.278 0.262 2.15 0.558 2.914 0.301 0.8 0.773 1.526 1.384 2.126 0.599 0.61 1.324 1.083 2.125 1.384 0.763 0.296 1.636 0.499 2.914 0.558 1.28 0.058 1.688 0.072 4.947 0.072s3.667-0.014 4.947-0.072c1.278-0.058 2.15-0.262 2.914-0.558 0.8-0.301 1.526-0.773 2.126-1.384 0.61-0.599 1.083-1.324 1.384-2.125 0.296-0.763 0.499-1.636 0.558-2.914 0.058-1.28 0.072-1.688 0.072-4.947s-0.014-3.667-0.072-4.947c-0.058-1.278-0.262-2.15-0.558-2.914-0.301-0.801-0.774-1.526-1.384-2.126-0.599-0.61-1.324-1.083-2.125-1.384-0.763-0.295-1.637-0.499-2.914-0.558-1.279-0.058-1.686-0.072-4.946-0.072zM16 6.162c3.204 0 3.584 0.012 4.85 0.070 1.17 0.054 1.805 0.248 2.228 0.414 0.56 0.217 0.96 0.478 1.38 0.897s0.68 0.82 0.897 1.38c0.165 0.423 0.36 1.058 0.414 2.228 0.058 1.266 0.070 1.646 0.070 4.85s-0.012 3.584-0.070 4.85c-0.054 1.17-0.248 1.805-0.414 2.228-0.192 0.521-0.499 0.993-0.897 1.38-0.387 0.398-0.859 0.705-1.38 0.897-0.423 0.165-1.058 0.36-2.228 0.414-1.266 0.058-1.645 0.070-4.85 0.070s-3.584-0.012-4.85-0.070c-1.17-0.054-1.805-0.248-2.228-0.414-0.521-0.192-0.993-0.499-1.38-0.897-0.398-0.387-0.705-0.859-0.897-1.38-0.165-0.423-0.36-1.058-0.414-2.228-0.058-1.266-0.070-1.646-0.070-4.85s0.012-3.584 0.070-4.85c0.054-1.17 0.248-1.805 0.414-2.228 0.217-0.56 0.478-0.96 0.897-1.38 0.387-0.398 0.859-0.705 1.38-0.897 0.423-0.165 1.058-0.36 2.228-0.414 1.266-0.058 1.646-0.070 4.85-0.070z"></path>
<path fill="#fff" style="fill: var(--color1, #fff)" d="M16 20.004c-0.526 0-1.046-0.103-1.532-0.305s-0.927-0.496-1.299-0.868c-0.372-0.372-0.667-0.813-0.868-1.299s-0.305-1.006-0.305-1.532c0-0.526 0.104-1.046 0.305-1.532s0.496-0.927 0.868-1.299c0.372-0.372 0.813-0.667 1.299-0.868s1.007-0.305 1.532-0.305c1.062 0 2.080 0.422 2.831 1.173s1.173 1.769 1.173 2.831c0 1.062-0.422 2.080-1.173 2.831s-1.769 1.173-2.831 1.173zM16 9.832c-1.636 0-3.205 0.65-4.361 1.807s-1.807 2.726-1.807 4.361c0 1.636 0.65 3.205 1.807 4.361s2.726 1.807 4.361 1.807 3.205-0.65 4.361-1.807c1.157-1.157 1.807-2.726 1.807-4.361s-0.65-3.205-1.807-4.361c-1.157-1.157-2.726-1.807-4.361-1.807zM23.962 9.72c0 0.387-0.154 0.758-0.427 1.031s-0.644 0.427-1.031 0.427-0.757-0.154-1.031-0.427c-0.273-0.273-0.427-0.644-0.427-1.031s0.154-0.758 0.427-1.031c0.273-0.273 0.644-0.427 1.031-0.427s0.758 0.154 1.031 0.427c0.273 0.273 0.427 0.644 0.427 1.031z"></path>
</symbol>
<symbol id="quotes" viewBox="0 0 32 32">
<path fill="#868686" style="fill: var(--color2, #868686)" d="M10.781 16.377c0.046-0 0.091 0.009 0.134 0.028s0.080 0.046 0.111 0.080c0.031 0.034 0.054 0.074 0.069 0.118s0.020 0.090 0.015 0.136c-0.178 1.781-0.642 3.44-1.373 4.931-0.629 1.295-1.485 2.466-2.526 3.459 5.053-2.7 7.111-8.465 6.417-13.124-0.436-2.92-2.175-6.042-5.742-6.042-3.080 0-5.587 2.508-5.587 5.587 0.002 0.975 0.259 1.932 0.744 2.777s1.183 1.549 2.024 2.041c0.841 0.492 1.796 0.757 2.77 0.767s1.935-0.235 2.786-0.71c0.050-0.030 0.106-0.046 0.164-0.047h-0.005zM5.081 26.694c-0.072 0.001-0.143-0.022-0.2-0.065s-0.1-0.104-0.12-0.173c-0.020-0.069-0.016-0.143 0.010-0.21s0.074-0.123 0.136-0.161c3.787-2.367 5.086-5.99 5.484-8.812-0.951 0.414-1.99 0.586-3.023 0.499s-2.029-0.43-2.897-0.998c-0.868-0.568-1.581-1.342-2.075-2.254s-0.754-1.933-0.755-2.97c0-3.445 2.798-6.243 6.243-6.243 1.716 0 3.23 0.67 4.369 1.941 1.041 1.162 1.744 2.775 2.025 4.664 0.83 5.564-2.081 12.627-9.107 14.77-0.030 0.009-0.062 0.014-0.094 0.014h0.005zM26.732 16.377c0.046-0 0.091 0.009 0.134 0.028s0.080 0.046 0.111 0.080c0.031 0.034 0.054 0.074 0.069 0.118s0.020 0.090 0.015 0.136c-0.183 1.781-0.642 3.44-1.373 4.931-0.63 1.295-1.487 2.467-2.531 3.459 5.053-2.7 7.111-8.465 6.417-13.124-0.436-2.92-2.17-6.042-5.742-6.042-3.080 0-5.587 2.508-5.587 5.587 0.001 0.975 0.256 1.933 0.742 2.779s1.183 1.55 2.025 2.043c0.841 0.493 1.797 0.757 2.772 0.766s1.936-0.236 2.786-0.713c0.050-0.030 0.106-0.046 0.164-0.047zM21.022 26.694c-0.073 0.002-0.144-0.020-0.202-0.063s-0.102-0.104-0.122-0.173-0.017-0.144 0.009-0.212c0.026-0.068 0.075-0.125 0.137-0.162 3.792-2.367 5.090-5.99 5.484-8.812-0.951 0.413-1.989 0.584-3.022 0.496s-2.028-0.431-2.895-0.998c-0.867-0.568-1.58-1.342-2.074-2.253s-0.753-1.931-0.755-2.968c0-3.445 2.803-6.243 6.248-6.243 1.72 0 3.23 0.67 4.369 1.941 1.041 1.162 1.744 2.775 2.025 4.664 0.83 5.564-2.081 12.627-9.107 14.77-0.030 0.009-0.062 0.014-0.094 0.014z"></path>
</symbol>
<symbol id="telegram" viewBox="0 0 32 32">
<path fill="#fff" style="fill: var(--color1, #fff)" d="M2.2 14.146c8.59-3.763 14.318-6.244 17.184-7.443 8.183-3.422 9.883-4.017 10.992-4.037 0.244-0.004 0.789 0.056 1.142 0.344 0.298 0.243 0.38 0.572 0.419 0.802s0.088 0.756 0.049 1.166c-0.443 4.685-2.362 16.055-3.338 21.302-0.413 2.22-1.226 2.965-2.014 3.038-1.711 0.158-3.011-1.137-4.668-2.23-2.593-1.709-4.059-2.773-6.576-4.442-2.909-1.928-1.023-2.987 0.635-4.719 0.434-0.453 7.973-7.349 8.119-7.974 0.018-0.078 0.035-0.37-0.137-0.524s-0.427-0.101-0.61-0.059c-0.26 0.059-4.403 2.813-12.429 8.261-1.176 0.812-2.241 1.208-3.195 1.187-1.052-0.023-3.076-0.598-4.58-1.090-1.845-0.603-3.312-0.922-3.184-1.946 0.067-0.534 0.797-1.079 2.192-1.637z"></path>
</symbol>
<symbol id="whatsapp" viewBox="0 0 32 32">
<path fill="none" stroke="#fff" style="stroke: var(--color1, #fff)" stroke-linejoin="round" stroke-linecap="round" stroke-miterlimit="4" stroke-width="2.6667" d="M12 13.333c0 0.177 0.070 0.346 0.195 0.471s0.295 0.195 0.471 0.195 0.346-0.070 0.471-0.195c0.125-0.125 0.195-0.295 0.195-0.471v-1.333c0-0.177-0.070-0.346-0.195-0.471s-0.295-0.195-0.471-0.195c-0.177 0-0.346 0.070-0.471 0.195s-0.195 0.295-0.195 0.471v1.333zM12 13.333c0 1.768 0.702 3.464 1.953 4.714s2.946 1.953 4.714 1.953M18.667 20h1.333c0.177 0 0.346-0.070 0.471-0.195s0.195-0.295 0.195-0.471-0.070-0.346-0.195-0.471c-0.125-0.125-0.295-0.195-0.471-0.195h-1.333c-0.177 0-0.346 0.070-0.471 0.195s-0.195 0.295-0.195 0.471 0.070 0.346 0.195 0.471c0.125 0.125 0.295 0.195 0.471 0.195zM4 28l2.2-5.067c-1.683-2.389-2.436-5.311-2.119-8.216s1.685-5.595 3.845-7.563 4.964-3.082 7.886-3.13c2.922-0.048 5.761 0.972 7.985 2.868s3.679 4.539 4.092 7.433c0.413 2.893-0.243 5.838-1.847 8.281s-4.044 4.218-6.862 4.99c-2.819 0.772-5.822 0.489-8.447-0.796l-6.733 1.2z"></path>
</symbol>
</defs>
</svg>
